<?xml version="1.0" encoding="UTF-8" standalone="no"?>
<!-- Created with Inkscape (http://www.inkscape.org/) -->

<svg
   width="4mm"
   height="4.5mm"
   viewBox="0 0 25.981001 30"
   version="1.1"
   id="svg5"
   inkscape:version="1.1.2 (0a00cf5339, 2022-02-04)"
   sodipodi:docname="mcbasic_file.svg"
   inkscape:export-filename="/home/kolterdyx/IdeaProjects/McbasicLanguage/src/main/resources/icons/mcbasic_logo.png"
   inkscape:export-xdpi="31.326668"
   inkscape:export-ydpi="31.326668"
   xmlns:inkscape="http://www.inkscape.org/namespaces/inkscape"
   xmlns:sodipodi="http://sodipodi.sourceforge.net/DTD/sodipodi-0.dtd"
   xmlns="http://www.w3.org/2000/svg"
   xmlns:svg="http://www.w3.org/2000/svg">
  <sodipodi:namedview
     id="namedview7"
     pagecolor="#505050"
     bordercolor="#eeeeee"
     borderopacity="1"
     inkscape:pageshadow="0"
     inkscape:pageopacity="0"
     inkscape:pagecheckerboard="0"
     inkscape:document-units="mm"
     showgrid="true"
     inkscape:snap-object-midpoints="true"
     inkscape:zoom="2.7750647"
     inkscape:cx="-26.666045"
     inkscape:cy="94.232037"
     inkscape:window-width="1920"
     inkscape:window-height="1001"
     inkscape:window-x="0"
     inkscape:window-y="28"
     inkscape:window-maximized="1"
     inkscape:current-layer="layer1">
    <inkscape:grid
       type="axonomgrid"
       id="grid824"
       visible="true"
       enabled="false" />
  </sodipodi:namedview>
  <defs
     id="defs2">
    <rect
       x="304.59094"
       y="173.00581"
       width="172.76399"
       height="80.635697"
       id="rect7721" />
  </defs>
  <g
     inkscape:label="Layer 1"
     inkscape:groupmode="layer"
     id="layer1">
    <g
       id="g18804"
       transform="translate(-77.942168,-37.5)">
      <path
         id="rect950"
         style="fill:#3a7e38;fill-opacity:1;stroke-width:2"
         d="M 90.932667,37.5 103.92305,45 90.932667,52.5 77.942286,45 Z"
         sodipodi:nodetypes="ccccc" />
      <path
         id="rect950-3"
         style="fill:#865e38;fill-opacity:0.996078;stroke-width:2"
         d="m 103.92305,60 -12.990385,7.5 4e-6,-15.000002 L 103.92305,45 Z"
         sodipodi:nodetypes="ccccc" />
      <path
         id="rect950-6"
         style="fill:#725030;fill-opacity:0.997968;stroke-width:2"
         d="M 90.932669,52.500001 90.932667,67.5 77.942287,59.999999 77.942289,45 Z"
         sodipodi:nodetypes="ccccc" />
    </g>
    <g
       aria-label="MCB"
       transform="matrix(0.26458333,0,0,0.26458333,-78.394392,-38.076966)"
       id="text7719"
       style="font-size:48px;line-height:1.25;font-family:Minecraft;-inkscape-font-specification:Minecraft;white-space:pre;shape-inside:url(#rect7721);fill:#ffffff;stroke-width:1.00157;stroke-linecap:square;paint-order:stroke fill markers">
      <path
         d="m 309.3918,188.60586 v -4.8 h -4.8 v 33.6 h 4.8 v -24 h 4.8 v -4.8 z m 14.4,-4.8 v 4.8 h -4.8 v 4.8 h 4.8 v 24 h 4.8 v -33.6 z m -9.6,14.4 h 4.8 v -4.8 h -4.8 z"
         id="path13025" />
      <path
         d="m 352.59172,183.80586 h -14.4 v 4.8 h 14.4 z m -19.2,4.8 v 24 h 4.8 v -24 z m 24,4.8 v -4.8 h -4.8 v 4.8 z m 0,14.4 h -4.8 v 4.8 h 4.8 z m -19.2,9.6 h 14.4 v -4.8 h -14.4 z"
         id="path13027" />
      <path
         d="m 381.39165,193.40586 h -14.4 v -4.8 h 14.4 v -4.8 h -19.2 v 33.6 h 19.2 v -4.8 h -14.4 v -14.4 h 14.4 z m 4.8,0 v -4.8 h -4.8 v 4.8 z m -4.8,4.8 v 14.4 h 4.8 v -14.4 z"
         id="path13029" />
    </g>
  </g>
</svg>
